<svg version="1.1" xmlns="http://www.w3.org/2000/svg" viewBox="-263.16799850463866 -1579.264064025879 12237.237440376097 2388.480093383789"><desc>Created with Snap</desc><defs></defs><g><g transform="matrix(19.7339,0,0,19.7339,9792.1464,-1370.7337)"><g><path d="M78.4,66.5c-5.5,4.8-9.9,15.2-9.9,15.2s-6.9-11.4-12.9-15.3c-9.5-6.1-13.6-6.2-13.6-6.2V65c0,0,7.8,1.2,11.7,4.6   c8.2,7.1,14.8,18.5,14.8,18.5S74.4,75,80.1,70.5C88.1,64.3,95,65,95,65v-4.8C95,60.1,85.1,60.7,78.4,66.5z" fill="#9c1f16" style=""></path><path d="M42,80c-6.4-3.6-17.8-4.3-17.8-4.3s8.7-10.1,10.5-17C37.5,47.9,36.2,44,36.2,44l-4.6,1.6c0,0,1.3,7.7-0.6,12.4   c-4.1,9.9-13,19.8-13,19.8s14.6,1.3,20.7,5.1c8.6,5.4,10.2,12,10.2,12l4.6-1.6C53.5,93.4,49.7,84.4,42,80z" fill="#9c1f16" style=""></path><path d="M35.3,36.8c11.3-0.9,14.6-3.4,14.6-3.4l-3-3.8c0,0-6.9,3.7-12.1,3.4c-10.9-0.6-23.3-5.6-23.3-5.6s3.5,14,1.8,20.9   C10.9,58.2,5,61.8,5,61.8l3,3.8c0,0,7.5-6.5,9.1-15.1c1.3-7.1-1.7-18-1.7-18S28,37.4,35.3,36.8z" fill="#9c1f16" style=""></path><path d="M37.4,17.8c7.3-1.1,16.7-7.4,16.7-7.4s-0.6,13.2,2.4,19.8c4.6,10.2,8,12.5,8,12.5l2.7-4c0,0-5.9-5.2-7.3-10.2   C56.9,18.2,57.7,5,57.7,5s-12.3,7.8-19.5,8.5c-10.2,1-15.6-3.3-15.6-3.3l-2.7,4.1C19.9,14.2,28.6,19.1,37.4,17.8z" fill="#9c1f16" style=""></path><path d="M65,60.5c0,0,3.1-7.2,7.4-10.1c9-6.1,21.9-9.7,21.9-9.7s-11.5-8.9-14.5-15.4c-4.2-9.1-1.9-15.6-1.9-15.6l-4.8-1.2   c0,0-1.9,9.6,2.2,17.4c3.4,6.4,12.5,13.2,12.5,13.2S75,42.9,69.6,47.8c-8.3,7.6-9.4,11.5-9.4,11.5L65,60.5z" fill="#9c1f16" style=""></path></g><desc>Created with Snap</desc><defs></defs></g><g><g transform="matrix(1.024,0,0,-1.024,0,0)"><path d="M393 -7Q296 -7 216 38Q136 84 89 165Q43 247 43 349Q43 451 89 532Q136 614 216 659Q296 705 393 705Q491 705 571 659Q651 614 697 533Q743 452 743 349Q743 246 697 165Q651 84 571 38Q491 -7 393 -7ZM393 72Q466 72 524 106Q583 140 616 203Q650 266 650 349Q650 433 616 495Q583 558 525 592Q467 626 393 626Q319 626 261 592Q203 558 169 495Q136 433 136 349Q136 266 169 203Q203 140 261 106Q320 72 393 72ZM1503 548L1593 548L1422 0L1328 0L1196 435L1064 0L970 0L798 548L891 548L1017 88L1153 548L1246 548L1379 87L1503 548ZM1922 -9Q1845 -9 1782 26Q1720 61 1684 125Q1649 190 1649 275Q1649 359 1685 423Q1722 488 1785 522Q1848 557 1926 557Q2004 557 2067 522Q2130 488 2166 424Q2203 360 2203 275Q2203 190 2165 125Q2128 61 2064 26Q2000 -9 1922 -9ZM1922 71Q1971 71 2014 94Q2057 117 2083 163Q2110 209 2110 275Q2110 341 2084 387Q2058 433 2016 455Q1974 478 1925 478Q1875 478 1833 455Q1792 433 1767 387Q1742 341 1742 275Q1742 208 1766 162Q1791 116 1832 93Q1873 71 1922 71ZM2289 275Q2289 360 2323 423Q2357 487 2417 522Q2478 557 2556 557Q2657 557 2722 508Q2788 459 2809 372L2711 372Q2697 422 2656 451Q2616 480 2556 480Q2478 480 2430 426Q2382 373 2382 275Q2382 176 2430 122Q2478 68 2556 68Q2616 68 2656 96Q2696 124 2711 176L2809 176Q2787 92 2721 41Q2655 -9 2556 -9Q2478 -9 2417 26Q2357 61 2323 125Q2289 189 2289 275ZM3169 -9Q3092 -9 3029 26Q2967 61 2931 125Q2896 190 2896 275Q2896 359 2932 423Q2969 488 3032 522Q3095 557 3173 557Q3251 557 3314 522Q3377 488 3413 424Q3450 360 3450 275Q3450 190 3412 125Q3375 61 3311 26Q3247 -9 3169 -9ZM3169 71Q3218 71 3261 94Q3304 117 3330 163Q3357 209 3357 275Q3357 341 3331 387Q3305 433 3263 455Q3221 478 3172 478Q3122 478 3080 455Q3039 433 3014 387Q2989 341 2989 275Q2989 208 3013 162Q3038 116 3079 93Q3120 71 3169 71ZM4210 548L4300 548L4129 0L4035 0L3903 435L3771 0L3677 0L3505 548L3598 548L3724 88L3860 548L3953 548L4086 87L4210 548ZM4890 295Q4890 269 4887 240L4449 240Q4454 159 4504 113Q4555 68 4627 68Q4686 68 4725 95Q4765 123 4781 169L4879 169Q4857 90 4791 40Q4725 -9 4627 -9Q4549 -9 4487 26Q4426 61 4391 125Q4356 190 4356 275Q4356 360 4390 424Q4424 488 4485 522Q4547 557 4627 557Q4705 557 4765 523Q4825 489 4857 429Q4890 370 4890 295ZM4796 314Q4796 366 4773 403Q4750 441 4710 460Q4671 480 4623 480Q4554 480 4505 436Q4457 392 4450 314L4796 314ZM5243 349Q5243 451 5289 532Q5335 614 5414 660Q5494 706 5591 706Q5705 706 5790 651Q5875 596 5914 495L5805 495Q5776 558 5721 592Q5667 626 5591 626Q5518 626 5460 592Q5402 558 5369 495Q5336 433 5336 349Q5336 266 5369 203Q5402 141 5460 107Q5518 73 5591 73Q5667 73 5721 106Q5776 140 5805 203L5914 203Q5875 103 5790 48Q5705 -6 5591 -6Q5494 -6 5414 39Q5335 85 5289 166Q5243 247 5243 349ZM6384 474L6117 75L6386 75L6386 0L6013 0L6013 75L6279 474L6015 474L6015 548L6384 548L6384 474ZM7144 548L7234 548L7063 0L6969 0L6837 435L6705 0L6611 0L6439 548L6532 548L6658 88L6794 548L6887 548L7020 87L7144 548ZM7290 276Q7290 360 7324 423Q7358 487 7417 522Q7477 557 7550 557Q7622 557 7675 526Q7728 495 7754 448L7754 548L7846 548L7846 0L7754 0L7754 102Q7727 54 7673 22Q7620 -9 7549 -9Q7476 -9 7417 27Q7358 63 7324 128Q7290 193 7290 276ZM7754 275Q7754 337 7729 383Q7704 429 7661 453Q7619 478 7568 478Q7517 478 7475 454Q7433 430 7408 384Q7383 338 7383 276Q7383 213 7408 166Q7433 120 7475 95Q7517 71 7568 71Q7619 71 7661 95Q7704 120 7729 166Q7754 213 7754 275ZM8091 459Q8115 506 8159 532Q8204 558 8268 558L8268 464L8244 464Q8091 464 8091 298L8091 0L8000 0L8000 548L8091 548L8091 459ZM8627 473L8484 473L8484 150Q8484 110 8501 93Q8518 77 8560 77L8627 77L8627 0L8545 0Q8469 0 8431 35Q8393 70 8393 150L8393 473L8322 473L8322 548L8393 548L8393 686L8484 686L8484 548L8627 548L8627 473ZM9167 0L9043 0L8828 242L8828 0L8737 0L8737 740L8828 740L8828 305L9039 548L9166 548L8908 275L9167 0ZM9299 637Q9273 637 9255 655Q9237 673 9237 699Q9237 725 9255 743Q9273 761 9299 761Q9324 761 9341 743Q9359 725 9359 699Q9359 673 9341 655Q9324 637 9299 637ZM9252 548L9343 548L9343 0L9252 0L9252 548Z" fill="#9c1f16" style=""></path></g></g></g></svg>